<svg xmlns="http://www.w3.org/2000/svg" width="150" height="24" viewBox="0 0 150 24" fill="none"><g opacity="0.6"><path d="M7.52755 14.1176V19.6856C7.52755 20.5389 7.61288 21.1682 7.78355 21.5736C7.97555 21.9576 8.29555 22.2136 8.74355 22.3416C9.21288 22.4696 9.94888 22.5442 10.9516 22.5656V23.2696C8.32755 23.2056 6.37555 23.1736 5.09555 23.1736C4.02888 23.1736 2.68488 23.1949 1.06355 23.2376L0.0395508 23.2696V22.6296C0.743551 22.5869 1.25555 22.5016 1.57555 22.3736C1.91688 22.2456 2.14088 22.0002 2.24755 21.6376C2.37555 21.2749 2.43955 20.6882 2.43955 19.8776V4.00556C2.43955 3.19489 2.37555 2.60823 2.24755 2.24556C2.14088 1.88289 1.91688 1.63756 1.57555 1.50956C1.25555 1.38156 0.743551 1.29623 0.0395508 1.25356V0.613562C1.12755 0.677561 2.74888 0.70956 4.90355 0.70956L8.45555 0.677561C8.88222 0.656228 9.37289 0.645561 9.92755 0.645561C12.8076 0.645561 15.0049 1.22156 16.5196 2.37356C18.0342 3.50423 18.7915 5.02956 18.7915 6.94956C18.7915 8.12289 18.4929 9.25356 17.8955 10.3416C17.2982 11.4082 16.2849 12.3042 14.8555 13.0296C13.4476 13.7549 11.5702 14.1176 9.22355 14.1176H7.52755ZM9.51155 1.25356C8.93555 1.25356 8.50888 1.32823 8.23155 1.47756C7.97555 1.62689 7.79422 1.89356 7.68755 2.27756C7.58088 2.66156 7.52755 3.23756 7.52755 4.00556V13.4776H8.90355C10.6316 13.4776 11.8262 12.9229 12.4875 11.8136C13.1489 10.7042 13.4796 9.20023 13.4796 7.30156C13.4796 5.23223 13.1702 3.70689 12.5516 2.72556C11.9542 1.74423 10.9409 1.25356 9.51155 1.25356Z" fill="#141414"></path><path d="M41.1911 20.5816C41.4684 21.2856 41.7884 21.7976 42.1511 22.1176C42.5137 22.4376 42.8657 22.6082 43.2071 22.6296V23.2696C41.9271 23.2056 40.3057 23.1736 38.3431 23.1736C36.1671 23.1736 34.5457 23.2056 33.479 23.2696V22.6296C34.2897 22.5869 34.8657 22.4909 35.2071 22.3416C35.5484 22.1709 35.7191 21.8829 35.7191 21.4776C35.7191 21.0936 35.591 20.5816 35.335 19.9416L33.4151 14.6936H26.439L25.607 16.9016C25.0097 18.4376 24.711 19.6216 24.711 20.4536C24.711 21.2429 24.9457 21.7976 25.4151 22.1176C25.9057 22.4162 26.6204 22.5869 27.559 22.6296V23.2696C26.1084 23.2056 24.7857 23.1736 23.591 23.1736C22.6097 23.1736 21.7991 23.2056 21.159 23.2696V22.6296C22.2044 22.4376 23.1217 21.3176 23.911 19.2696L31.2071 0.549561C31.4417 0.570894 31.815 0.58156 32.327 0.58156C32.839 0.58156 33.2017 0.570894 33.4151 0.549561L41.1911 20.5816ZM33.1911 14.0536L30.0231 5.41356L26.695 14.0536H33.1911Z" fill="#141414"></path><path d="M74.9658 1.25356C74.2405 1.29623 73.7178 1.38156 73.3978 1.50956C73.0778 1.63756 72.8538 1.88289 72.7258 2.24556C72.6191 2.60823 72.5658 3.19489 72.5658 4.00556V19.8776C72.5658 20.6882 72.6191 21.2749 72.7258 21.6376C72.8538 22.0002 73.0778 22.2456 73.3978 22.3736C73.7391 22.5016 74.2618 22.5869 74.9658 22.6296V23.2696C73.7925 23.2056 72.1178 23.1736 69.9418 23.1736C67.6591 23.1736 65.9738 23.2056 64.8858 23.2696V22.6296C65.6538 22.5869 66.2085 22.5016 66.5498 22.3736C66.9125 22.2456 67.1578 22.0002 67.2858 21.6376C67.4138 21.2749 67.4778 20.6882 67.4778 19.8776V3.14156L59.7658 23.3016H59.2538L50.6138 2.69356V18.0216C50.6138 19.2802 50.6778 20.2082 50.8058 20.8056C50.9338 21.3816 51.2111 21.8082 51.6378 22.0856C52.0645 22.3416 52.7578 22.5229 53.7178 22.6296V23.2696C52.8858 23.2056 51.7338 23.1736 50.2618 23.1736C49.0885 23.1736 48.1605 23.2056 47.4778 23.2696V22.6296C48.1818 22.5229 48.6938 22.3416 49.0138 22.0856C49.3551 21.8296 49.5791 21.4242 49.6858 20.8696C49.8138 20.3149 49.8778 19.4936 49.8778 18.4056V4.00556C49.8778 3.19489 49.8138 2.60823 49.6858 2.24556C49.5791 1.88289 49.3551 1.63756 49.0138 1.50956C48.6938 1.38156 48.1818 1.29623 47.4778 1.25356V0.613562C48.1605 0.677561 49.0885 0.70956 50.2618 0.70956C52.2245 0.70956 53.9098 0.677561 55.3178 0.613562L61.7818 16.1976L67.6698 0.70956H69.9418C72.1178 0.70956 73.7925 0.677561 74.9658 0.613562V1.25356Z" fill="#141414"></path><path d="M98.6381 18.4056C98.6381 20.3682 98.7127 21.9896 98.8621 23.2696C97.4114 23.2056 94.9687 23.1736 91.5341 23.1736C86.8834 23.1736 83.4061 23.2056 81.1021 23.2696V22.6296C81.8061 22.5869 82.3181 22.5016 82.6381 22.3736C82.9794 22.2456 83.2034 22.0002 83.3101 21.6376C83.4381 21.2749 83.5021 20.6882 83.5021 19.8776V4.00556C83.5021 3.19489 83.4381 2.60823 83.3101 2.24556C83.2034 1.88289 82.9794 1.63756 82.6381 1.50956C82.3181 1.38156 81.8061 1.29623 81.1021 1.25356V0.613562C83.4061 0.677561 86.8834 0.70956 91.5341 0.70956C94.6701 0.70956 96.8994 0.677561 98.2221 0.613562C98.0727 2.38423 97.9981 3.9629 97.9981 5.34956C97.9981 6.28823 98.0301 7.01356 98.0941 7.52556H97.3581C97.0381 5.2429 96.4621 3.64289 95.6301 2.72556C94.7981 1.80823 93.6247 1.34956 92.1101 1.34956H90.798C90.1367 1.34956 89.6567 1.40289 89.3581 1.50956C89.0594 1.61623 88.8567 1.82956 88.7501 2.14956C88.6434 2.44823 88.5901 2.93889 88.5901 3.62156V11.5576H89.6141C90.7447 11.5576 91.5981 11.1416 92.1741 10.3096C92.7714 9.47756 93.1874 8.48556 93.4221 7.33356H94.1581C94.0941 8.22956 94.0621 9.23223 94.0621 10.3416V11.8776C94.0621 12.9656 94.1261 14.4802 94.2541 16.4216H93.5181C93.0701 13.6056 91.7687 12.1976 89.6141 12.1976H88.5901V20.2616C88.5901 20.9442 88.6434 21.4456 88.7501 21.7656C88.8567 22.0642 89.0594 22.2669 89.3581 22.3736C89.6567 22.4802 90.1367 22.5336 90.798 22.5336H92.3661C93.8807 22.5336 95.0967 22.0216 96.0141 20.9976C96.9527 19.9522 97.6141 18.1922 97.9981 15.7176H98.7341C98.6701 16.4216 98.6381 17.3176 98.6381 18.4056Z" fill="#141414"></path><path d="M115.463 1.25356C114.695 1.29623 114.13 1.38156 113.767 1.50956C113.426 1.63756 113.191 1.88289 113.063 2.24556C112.935 2.60823 112.871 3.19489 112.871 4.00556V20.2616C112.871 20.9442 112.925 21.4456 113.031 21.7656C113.138 22.0642 113.319 22.2669 113.575 22.3736C113.853 22.4802 114.29 22.5336 114.887 22.5336H116.455C117.906 22.5336 119.154 21.8829 120.199 20.5816C121.266 19.2802 121.959 17.5522 122.279 15.3976H123.015C122.951 16.1229 122.919 17.0616 122.919 18.2136C122.919 20.2616 122.994 21.9469 123.143 23.2696C121.693 23.2056 119.25 23.1736 115.815 23.1736C111.165 23.1736 107.687 23.2056 105.383 23.2696V22.6296C106.087 22.5869 106.599 22.5016 106.919 22.3736C107.261 22.2456 107.485 22.0002 107.591 21.6376C107.719 21.2749 107.783 20.6882 107.783 19.8776V4.00556C107.783 3.19489 107.719 2.60823 107.591 2.24556C107.485 1.88289 107.261 1.63756 106.919 1.50956C106.599 1.38156 106.087 1.29623 105.383 1.25356V0.613562C106.471 0.677561 108.157 0.70956 110.439 0.70956C112.615 0.70956 114.29 0.677561 115.463 0.613562V1.25356Z" fill="#141414"></path><path d="M147.41 20.5816C147.687 21.2856 148.007 21.7976 148.37 22.1176C148.732 22.4376 149.084 22.6082 149.426 22.6296V23.2696C148.146 23.2056 146.524 23.1736 144.562 23.1736C142.386 23.1736 140.764 23.2056 139.698 23.2696V22.6296C140.508 22.5869 141.084 22.4909 141.426 22.3416C141.767 22.1709 141.938 21.8829 141.938 21.4776C141.938 21.0936 141.81 20.5816 141.554 19.9416L139.634 14.6936H132.658L131.826 16.9016C131.228 18.4376 130.93 19.6216 130.93 20.4536C130.93 21.2429 131.164 21.7976 131.634 22.1176C132.124 22.4162 132.839 22.5869 133.778 22.6296V23.2696C132.327 23.2056 131.004 23.1736 129.81 23.1736C128.828 23.1736 128.018 23.2056 127.378 23.2696V22.6296C128.423 22.4376 129.34 21.3176 130.13 19.2696L137.426 0.549561C137.66 0.570894 138.034 0.58156 138.546 0.58156C139.058 0.58156 139.42 0.570894 139.634 0.549561L147.41 20.5816ZM139.41 14.0536L136.242 5.41356L132.914 14.0536H139.41Z" fill="#141414"></path></g></svg>