<svg xmlns="http://www.w3.org/2000/svg" width="206" height="23" viewBox="0 0 206 23" fill="none"><path d="M19.2549 1.24219V6.97656H18.6924C18.359 5.65365 17.9893 4.70573 17.583 4.13281C17.1768 3.54948 16.6195 3.08594 15.9111 2.74219C15.5153 2.55469 14.8226 2.46094 13.833 2.46094H12.2549V18.8047C12.2549 19.888 12.3122 20.5651 12.4268 20.8359C12.5518 21.1068 12.7861 21.3464 13.1299 21.5547C13.484 21.7526 13.9632 21.8516 14.5674 21.8516H15.2705V22.4297H4.17676V21.8516H4.87988C5.49447 21.8516 5.98926 21.7422 6.36426 21.5234C6.63509 21.3776 6.84863 21.1276 7.00488 20.7734C7.11947 20.5234 7.17676 19.8672 7.17676 18.8047V2.46094H5.64551C4.21842 2.46094 3.18197 2.76302 2.53613 3.36719C1.62988 4.21094 1.05697 5.41406 0.817383 6.97656H0.223633V1.24219H19.2549Z" fill="#727272"></path><path d="M27.458 1.24219V9.69531C28.2601 8.85156 28.9945 8.25781 29.6611 7.91406C30.3278 7.5599 31.0205 7.38281 31.7393 7.38281C32.6559 7.38281 33.4372 7.64323 34.083 8.16406C34.7393 8.6849 35.1715 9.29948 35.3799 10.0078C35.5986 10.7057 35.708 11.888 35.708 13.5547V19.2578C35.708 20.3724 35.8122 21.0703 36.0205 21.3516C36.2288 21.6224 36.6507 21.7943 37.2861 21.8672V22.4297H29.8799V21.8672C30.4007 21.7943 30.7913 21.5859 31.0518 21.2422C31.2393 20.9714 31.333 20.3099 31.333 19.2578V12.7422C31.333 11.5339 31.2861 10.7786 31.1924 10.4766C31.0986 10.1641 30.9372 9.92448 30.708 9.75781C30.4893 9.58073 30.2393 9.49219 29.958 9.49219C29.5413 9.49219 29.1351 9.63802 28.7393 9.92969C28.3434 10.2109 27.9163 10.7109 27.458 11.4297V19.2578C27.458 20.2995 27.5361 20.9505 27.6924 21.2109C27.8903 21.5651 28.2965 21.7839 28.9111 21.8672V22.4297H21.5049V21.8672C22.1195 21.8047 22.557 21.6068 22.8174 21.2734C22.9945 21.0443 23.083 20.3724 23.083 19.2578V4.41406C23.083 3.3099 22.9788 2.6224 22.7705 2.35156C22.5726 2.08073 22.1507 1.90365 21.5049 1.82031V1.24219H27.458Z" fill="#727272"></path><path d="M51.6768 14.6016H43.6611C43.7549 16.5391 44.2705 18.0703 45.208 19.1953C45.9268 20.0599 46.7913 20.4922 47.8018 20.4922C48.4268 20.4922 48.9945 20.3203 49.5049 19.9766C50.0153 19.6224 50.5622 18.9922 51.1455 18.0859L51.6768 18.4297C50.8851 20.0443 50.0101 21.1901 49.0518 21.8672C48.0934 22.5339 46.984 22.8672 45.7236 22.8672C43.557 22.8672 41.9163 22.0339 40.8018 20.3672C39.9059 19.0234 39.458 17.3568 39.458 15.3672C39.458 12.9297 40.1143 10.9922 41.4268 9.55469C42.7497 8.10677 44.2965 7.38281 46.0674 7.38281C47.5465 7.38281 48.8278 7.99219 49.9111 9.21094C51.0049 10.4193 51.5934 12.2161 51.6768 14.6016ZM47.833 13.5547C47.833 11.8776 47.7393 10.7266 47.5518 10.1016C47.3747 9.47656 47.0934 9.0026 46.708 8.67969C46.4893 8.49219 46.1976 8.39844 45.833 8.39844C45.2913 8.39844 44.8486 8.66406 44.5049 9.19531C43.8903 10.1224 43.583 11.3932 43.583 13.0078V13.5547H47.833Z" fill="#727272"></path><path d="M94.2632 1.24219V1.82031C93.8674 1.85156 93.534 1.96094 93.2632 2.14844C92.9924 2.33594 92.7528 2.6224 92.5444 3.00781C92.4819 3.13281 92.1538 3.9401 91.5601 5.42969L84.9194 22.9141H84.3101L79.0601 9.25781L73.2788 22.9141H72.7007L65.7319 5.61719C65.0236 3.8776 64.5288 2.82552 64.2476 2.46094C63.9663 2.09635 63.4924 1.88281 62.8257 1.82031V1.24219H72.0132V1.82031C71.2736 1.84115 70.7788 1.95573 70.5288 2.16406C70.2892 2.36198 70.1694 2.61198 70.1694 2.91406C70.1694 3.3099 70.4246 4.14844 70.9351 5.42969L75.0913 15.7109L78.4194 7.67969L77.5444 5.42969C77.0653 4.20052 76.6955 3.38281 76.4351 2.97656C76.1746 2.5599 75.8726 2.26302 75.5288 2.08594C75.1955 1.90885 74.7007 1.82031 74.0444 1.82031V1.24219H84.3101V1.82031C83.5913 1.83073 83.0757 1.88802 82.7632 1.99219C82.5444 2.0651 82.3726 2.1901 82.2476 2.36719C82.1226 2.53385 82.0601 2.72656 82.0601 2.94531C82.0601 3.1849 82.2944 3.91927 82.7632 5.14844L86.6226 15.1797L90.0757 6.10156C90.4403 5.16406 90.6642 4.52344 90.7476 4.17969C90.8309 3.83594 90.8726 3.51823 90.8726 3.22656C90.8726 2.79948 90.7267 2.46615 90.4351 2.22656C90.1434 1.97656 89.5861 1.84115 88.7632 1.82031V1.24219H94.2632Z" fill="#727272"></path><path d="M101.591 1.24219V9.69531C102.393 8.85156 103.128 8.25781 103.794 7.91406C104.461 7.5599 105.154 7.38281 105.873 7.38281C106.789 7.38281 107.57 7.64323 108.216 8.16406C108.873 8.6849 109.305 9.29948 109.513 10.0078C109.732 10.7057 109.841 11.888 109.841 13.5547V19.2578C109.841 20.3724 109.945 21.0703 110.154 21.3516C110.362 21.6224 110.784 21.7943 111.419 21.8672V22.4297H104.013V21.8672C104.534 21.7943 104.925 21.5859 105.185 21.2422C105.373 20.9714 105.466 20.3099 105.466 19.2578V12.7422C105.466 11.5339 105.419 10.7786 105.326 10.4766C105.232 10.1641 105.07 9.92448 104.841 9.75781C104.623 9.58073 104.373 9.49219 104.091 9.49219C103.675 9.49219 103.268 9.63802 102.873 9.92969C102.477 10.2109 102.05 10.7109 101.591 11.4297V19.2578C101.591 20.2995 101.669 20.9505 101.826 21.2109C102.024 21.5651 102.43 21.7839 103.044 21.8672V22.4297H95.6382V21.8672C96.2528 21.8047 96.6903 21.6068 96.9507 21.2734C97.1278 21.0443 97.2163 20.3724 97.2163 19.2578V4.41406C97.2163 3.3099 97.1121 2.6224 96.9038 2.35156C96.7059 2.08073 96.284 1.90365 95.6382 1.82031V1.24219H101.591Z" fill="#727272"></path><path d="M116.951 0.742188C117.628 0.742188 118.201 0.981771 118.669 1.46094C119.138 1.92969 119.373 2.4974 119.373 3.16406C119.373 3.83073 119.133 4.39844 118.654 4.86719C118.185 5.33594 117.617 5.57031 116.951 5.57031C116.284 5.57031 115.716 5.33594 115.248 4.86719C114.779 4.39844 114.544 3.83073 114.544 3.16406C114.544 2.4974 114.779 1.92969 115.248 1.46094C115.716 0.981771 116.284 0.742188 116.951 0.742188ZM119.138 7.82031V19.3984C119.138 20.4297 119.258 21.0911 119.498 21.3828C119.737 21.6641 120.206 21.8255 120.904 21.8672V22.4297H113.013V21.8672C113.659 21.8464 114.138 21.6589 114.451 21.3047C114.659 21.0651 114.763 20.4297 114.763 19.3984V10.8672C114.763 9.83594 114.643 9.17969 114.404 8.89844C114.164 8.60677 113.701 8.4401 113.013 8.39844V7.82031H119.138Z" fill="#727272"></path><path d="M128.138 2.47656V7.82031H131.607V9.36719H128.138V18.3828C128.138 19.2266 128.175 19.7734 128.248 20.0234C128.331 20.263 128.472 20.4609 128.669 20.6172C128.867 20.763 129.05 20.8359 129.216 20.8359C129.893 20.8359 130.534 20.3203 131.138 19.2891L131.607 19.6328C130.763 21.6328 129.393 22.6328 127.498 22.6328C126.57 22.6328 125.784 22.3776 125.138 21.8672C124.503 21.3464 124.097 20.7682 123.919 20.1328C123.815 19.7786 123.763 18.8203 123.763 17.2578V9.36719H121.857V8.82031C123.169 7.89323 124.284 6.91927 125.201 5.89844C126.128 4.8776 126.935 3.73698 127.623 2.47656H128.138Z" fill="#727272"></path><path d="M145.373 14.6016H137.357C137.451 16.5391 137.966 18.0703 138.904 19.1953C139.623 20.0599 140.487 20.4922 141.498 20.4922C142.123 20.4922 142.69 20.3203 143.201 19.9766C143.711 19.6224 144.258 18.9922 144.841 18.0859L145.373 18.4297C144.581 20.0443 143.706 21.1901 142.748 21.8672C141.789 22.5339 140.68 22.8672 139.419 22.8672C137.253 22.8672 135.612 22.0339 134.498 20.3672C133.602 19.0234 133.154 17.3568 133.154 15.3672C133.154 12.9297 133.81 10.9922 135.123 9.55469C136.445 8.10677 137.992 7.38281 139.763 7.38281C141.242 7.38281 142.524 7.99219 143.607 9.21094C144.701 10.4193 145.289 12.2161 145.373 14.6016ZM141.529 13.5547C141.529 11.8776 141.435 10.7266 141.248 10.1016C141.07 9.47656 140.789 9.0026 140.404 8.67969C140.185 8.49219 139.893 8.39844 139.529 8.39844C138.987 8.39844 138.544 8.66406 138.201 9.19531C137.586 10.1224 137.279 11.3932 137.279 13.0078V13.5547H141.529Z" fill="#727272"></path><path d="M176.326 1.24219V1.82031C175.555 1.94531 174.867 2.35677 174.263 3.05469C173.826 3.57552 173.175 4.79948 172.31 6.72656L165.013 22.9141H164.498L157.232 6.07031C156.357 4.03906 155.768 2.84635 155.466 2.49219C155.175 2.13802 154.617 1.91406 153.794 1.82031V1.24219H163.951V1.82031H163.607C162.69 1.82031 162.065 1.9349 161.732 2.16406C161.492 2.32031 161.373 2.54948 161.373 2.85156C161.373 3.03906 161.414 3.26302 161.498 3.52344C161.581 3.77344 161.862 4.45573 162.341 5.57031L166.857 16.1172L171.044 6.72656C171.544 5.59115 171.852 4.83073 171.966 4.44531C172.081 4.0599 172.138 3.73177 172.138 3.46094C172.138 3.14844 172.055 2.8724 171.888 2.63281C171.722 2.39323 171.477 2.21094 171.154 2.08594C170.706 1.90885 170.112 1.82031 169.373 1.82031V1.24219H176.326Z" fill="#727272"></path><path d="M187.185 14.6016H179.169C179.263 16.5391 179.779 18.0703 180.716 19.1953C181.435 20.0599 182.3 20.4922 183.31 20.4922C183.935 20.4922 184.503 20.3203 185.013 19.9766C185.524 19.6224 186.07 18.9922 186.654 18.0859L187.185 18.4297C186.393 20.0443 185.518 21.1901 184.56 21.8672C183.602 22.5339 182.492 22.8672 181.232 22.8672C179.065 22.8672 177.425 22.0339 176.31 20.3672C175.414 19.0234 174.966 17.3568 174.966 15.3672C174.966 12.9297 175.623 10.9922 176.935 9.55469C178.258 8.10677 179.805 7.38281 181.576 7.38281C183.055 7.38281 184.336 7.99219 185.419 9.21094C186.513 10.4193 187.102 12.2161 187.185 14.6016ZM183.341 13.5547C183.341 11.8776 183.248 10.7266 183.06 10.1016C182.883 9.47656 182.602 9.0026 182.216 8.67969C181.998 8.49219 181.706 8.39844 181.341 8.39844C180.8 8.39844 180.357 8.66406 180.013 9.19531C179.399 10.1224 179.091 11.3932 179.091 13.0078V13.5547H183.341Z" fill="#727272"></path><path d="M192.544 0.742188C193.222 0.742188 193.794 0.981771 194.263 1.46094C194.732 1.92969 194.966 2.4974 194.966 3.16406C194.966 3.83073 194.727 4.39844 194.248 4.86719C193.779 5.33594 193.211 5.57031 192.544 5.57031C191.878 5.57031 191.31 5.33594 190.841 4.86719C190.373 4.39844 190.138 3.83073 190.138 3.16406C190.138 2.4974 190.373 1.92969 190.841 1.46094C191.31 0.981771 191.878 0.742188 192.544 0.742188ZM194.732 7.82031V19.3984C194.732 20.4297 194.852 21.0911 195.091 21.3828C195.331 21.6641 195.8 21.8255 196.498 21.8672V22.4297H188.607V21.8672C189.253 21.8464 189.732 21.6589 190.044 21.3047C190.253 21.0651 190.357 20.4297 190.357 19.3984V10.8672C190.357 9.83594 190.237 9.17969 189.998 8.89844C189.758 8.60677 189.294 8.4401 188.607 8.39844V7.82031H194.732Z" fill="#727272"></path><path d="M203.654 1.24219V19.3984C203.654 20.4297 203.774 21.0911 204.013 21.3828C204.253 21.6641 204.722 21.8255 205.419 21.8672V22.4297H197.529V21.8672C198.175 21.8464 198.654 21.6589 198.966 21.3047C199.175 21.0651 199.279 20.4297 199.279 19.3984V4.27344C199.279 3.2526 199.159 2.60156 198.919 2.32031C198.68 2.02865 198.216 1.86198 197.529 1.82031V1.24219H203.654Z" fill="#727272"></path></svg>