<svg xmlns="http://www.w3.org/2000/svg" width="139" height="27" viewBox="0 0 139 27" fill="none"><path d="M12.0556 26.5597C10.3556 26.5597 9.31291 25.8004 8.92758 24.2817C8.22491 24.5537 7.39758 24.6897 6.44558 24.6897C4.60958 24.6897 3.20425 24.1684 2.22958 23.1257C1.25491 22.0831 0.767578 20.6097 0.767578 18.7057V6.19372C0.767578 4.28972 1.25491 2.81638 2.22958 1.77372C3.20425 0.73105 4.60958 0.209717 6.44558 0.209717C8.28158 0.209717 9.68691 0.73105 10.6616 1.77372C11.6362 2.81638 12.1236 4.28972 12.1236 6.19372V18.7057C12.1236 20.2924 11.7722 21.5957 11.0696 22.6157C11.2056 22.8424 11.3756 22.9897 11.5796 23.0577C11.7836 23.1257 12.0782 23.1597 12.4636 23.1597H13.0416V26.5597H12.0556ZM6.44558 21.2897C7.73758 21.2897 8.38358 20.5077 8.38358 18.9437V5.95572C8.38358 4.39172 7.73758 3.60972 6.44558 3.60972C5.15358 3.60972 4.50758 4.39172 4.50758 5.95572V18.9437C4.50758 20.5077 5.15358 21.2897 6.44558 21.2897Z" fill="#727272"></path><path d="M20.0929 24.6897C18.2795 24.6897 16.8969 24.1797 15.9449 23.1597C14.9929 22.1171 14.5169 20.6324 14.5169 18.7057V0.549716H18.2569V18.9777C18.2569 19.7937 18.4155 20.3831 18.7329 20.7457C19.0729 21.1084 19.5489 21.2897 20.1609 21.2897C20.7729 21.2897 21.2375 21.1084 21.5549 20.7457C21.8949 20.3831 22.0649 19.7937 22.0649 18.9777V0.549716H25.6689V18.7057C25.6689 20.6324 25.1929 22.1171 24.2409 23.1597C23.2889 24.1797 21.9062 24.6897 20.0929 24.6897Z" fill="#727272"></path><path d="M28.3325 0.549716H38.5325V3.94972H32.0725V10.2397H37.2065V13.6397H32.0725V20.9497H38.5325V24.3497H28.3325V0.549716Z" fill="#727272"></path><path d="M40.6841 0.549716H50.8841V3.94972H44.4241V10.2397H49.5581V13.6397H44.4241V20.9497H50.8841V24.3497H40.6841V0.549716Z" fill="#727272"></path><path d="M53.0357 0.549716H57.7277L61.3657 14.7957H61.4337V0.549716H64.7657V24.3497H60.9237L56.4357 6.97572H56.3677V24.3497H53.0357V0.549716Z" fill="#727272"></path><path d="M76.9007 24.6897C75.5407 24.6897 74.5094 24.2251 73.8067 23.2957C73.1041 22.3664 72.7527 21.0177 72.7527 19.2497V16.7677C72.7527 15.5211 72.9681 14.4784 73.3988 13.6397C73.8294 12.8011 74.5321 12.189 75.5068 11.8037V11.7357C74.6228 11.3731 73.9654 10.795 73.5348 10.0017C73.1268 9.18572 72.9227 8.14305 72.9227 6.87372V6.43172C72.9227 4.50505 73.3874 3.04305 74.3167 2.04572C75.2461 1.04838 76.6401 0.549716 78.4987 0.549716H82.7828V3.94972H78.5667C77.9547 3.94972 77.4787 4.13105 77.1387 4.49372C76.8214 4.85638 76.6628 5.44572 76.6628 6.26172V7.72372C76.6628 8.63038 76.8441 9.27638 77.2067 9.66172C77.5921 10.0471 78.1587 10.2397 78.9067 10.2397H80.3688V7.58772H84.0407V10.2397H85.0947V13.6397H84.0407V21.4597C84.0407 22.1397 84.0634 22.6951 84.1087 23.1257C84.1541 23.5337 84.2674 23.9417 84.4487 24.3497H80.7087C80.5274 23.8511 80.4141 23.2277 80.3688 22.4797H80.3008C79.8928 23.2277 79.4167 23.7831 78.8727 24.1457C78.3514 24.5084 77.6941 24.6897 76.9007 24.6897ZM78.2947 21.2897C79.4734 21.2897 80.1648 20.5757 80.3688 19.1477V13.6397H78.9408C78.0794 13.6397 77.4561 13.8777 77.0707 14.3537C76.6854 14.8071 76.4928 15.5777 76.4928 16.6657V19.0797C76.4928 19.8731 76.6514 20.4397 76.9688 20.7797C77.2861 21.1197 77.7281 21.2897 78.2947 21.2897Z" fill="#727272"></path><path d="M92.6138 0.549716H96.3538V10.5797L101.114 0.549716H104.854L100.4 9.28772L104.922 24.3497H101.012L97.8498 13.7417L96.3538 16.7677V24.3497H92.6138V0.549716Z" fill="#727272"></path><path d="M106.692 0.549716H110.432V24.3497H106.692V0.549716Z" fill="#727272"></path><path d="M113.233 0.549716H117.925L121.563 14.7957H121.631V0.549716H124.963V24.3497H121.121L116.633 6.97572H116.565V24.3497H113.233V0.549716Z" fill="#727272"></path><path d="M133.047 24.6897C131.233 24.6897 129.851 24.1797 128.899 23.1597C127.947 22.1171 127.471 20.6324 127.471 18.7057V6.19372C127.471 4.26705 127.947 2.79372 128.899 1.77372C129.851 0.73105 131.233 0.209717 133.047 0.209717C134.86 0.209717 136.243 0.73105 137.195 1.77372C138.147 2.79372 138.623 4.26705 138.623 6.19372V8.23372H135.087V5.95572C135.087 4.39172 134.441 3.60972 133.149 3.60972C131.857 3.60972 131.211 4.39172 131.211 5.95572V18.9777C131.211 20.5191 131.857 21.2897 133.149 21.2897C134.441 21.2897 135.087 20.5191 135.087 18.9777V14.3197H133.217V10.9197H138.623V18.7057C138.623 20.6324 138.147 22.1171 137.195 23.1597C136.243 24.1797 134.86 24.6897 133.047 24.6897Z" fill="#727272"></path></svg>