<svg xmlns="http://www.w3.org/2000/svg" width="148" height="28" viewBox="0 0 148 28" fill="none"><path d="M20.6711 26.9141H18.8899L22.8049 8.19238L22.9348 7.54297C23.0214 7.08529 23.0647 6.76986 23.0647 6.59668C23.0647 6.36165 23.0028 6.16992 22.8792 6.02148C22.7555 5.86068 22.5823 5.78027 22.3596 5.78027C22.0133 5.78027 21.6236 5.99056 21.1907 6.41113C20.7577 6.83171 20.2135 7.53678 19.5579 8.52637C18.5435 10.0355 17.4364 12.1322 16.2366 14.8164C15.2965 16.9316 14.4924 18.9912 13.8245 20.9951C13.1689 22.9867 12.6308 24.9596 12.2102 26.9141H10.6702L14.9749 6.76367C15.1109 6.13281 15.179 5.63802 15.179 5.2793C15.179 5.11849 15.148 4.96387 15.0862 4.81543C15.0243 4.66699 14.9377 4.55566 14.8264 4.48145C14.7275 4.40723 14.6099 4.37012 14.4739 4.37012C13.8925 4.37012 13.1812 4.93913 12.3401 6.07715C11.4989 7.2028 10.5032 8.95931 9.35278 11.3467C8.80851 12.4229 8.2828 13.5485 7.77563 14.7236C7.26847 15.8988 6.81698 16.9935 6.42114 18.0078C6.02531 19.0221 5.58 20.2591 5.08521 21.7188C4.36776 23.8464 3.84823 25.5781 3.52661 26.9141H1.96802L2.02368 26.6543L2.82153 23.4814C3.10604 22.2692 3.35343 21.193 3.56372 20.2529C4.54093 15.8245 5.25838 12.2064 5.71606 9.39844C6.09953 7.19661 6.29126 5.6071 6.29126 4.62988C6.29126 3.91243 6.17993 3.36198 5.95728 2.97852C5.74699 2.58268 5.45011 2.38477 5.06665 2.38477C4.12655 2.38477 3.29159 3.63411 2.56177 6.13281C2.10409 7.70378 1.75155 9.39844 1.50415 11.2168L0.112549 10.3076C0.322835 8.71191 0.669189 7.27083 1.15161 5.98438C1.6464 4.69792 2.22778 3.68359 2.89575 2.94141C3.57609 2.18685 4.26261 1.80957 4.95532 1.80957C5.74699 1.80957 6.36548 2.23014 6.81079 3.07129C7.26847 3.91243 7.49731 5.06283 7.49731 6.52246C7.49731 7.74707 7.38599 9.13867 7.16333 10.6973C7.10148 11.1549 6.90356 12.3177 6.56958 14.1855L5.82739 18.2305L5.93872 17.8779C6.82935 15.4535 8.12199 12.596 9.81665 9.30566C10.8805 7.26465 11.8639 5.72461 12.7668 4.68555C13.6822 3.63411 14.511 3.1084 15.2532 3.1084C15.7232 3.1084 16.1129 3.29395 16.4221 3.66504C16.7314 4.02376 16.886 4.48763 16.886 5.05664C16.886 5.63802 16.7685 6.47917 16.5334 7.58008L14.3811 17.8594C14.5419 17.4017 14.913 16.5234 15.4944 15.2246C17.189 11.4642 18.6363 8.75521 19.8362 7.09766C21.0361 5.42773 22.1431 4.59277 23.1575 4.59277C23.6646 4.59277 24.0667 4.77214 24.3635 5.13086C24.6728 5.47721 24.8274 5.94108 24.8274 6.52246C24.8274 6.99251 24.7222 7.70378 24.512 8.65625L20.6711 26.9141Z" fill="#727272"></path><path d="M29.2249 8.78613C29.5465 8.78613 29.8062 8.88509 30.0042 9.08301C30.2021 9.28092 30.301 9.54069 30.301 9.8623C30.301 10.1715 30.1959 10.4313 29.9856 10.6416C29.7753 10.8519 29.5217 10.957 29.2249 10.957C28.9403 10.957 28.6868 10.8457 28.4641 10.623C28.2415 10.4004 28.1301 10.1468 28.1301 9.8623C28.1301 9.56543 28.2353 9.31185 28.4456 9.10156C28.6558 8.89128 28.9156 8.78613 29.2249 8.78613ZM28.6868 16.0596L27.054 22.1641C26.7818 23.166 26.6458 23.9701 26.6458 24.5762C26.6458 24.972 26.7138 25.2936 26.8499 25.541C26.9859 25.7884 27.1653 25.9121 27.3879 25.9121C27.7714 25.9121 28.3837 25.4544 29.2249 24.5391L29.5217 24.7988L29.3362 25.0029C28.6311 25.8317 28.1116 26.3945 27.7776 26.6914C27.4436 26.9759 27.1344 27.1182 26.8499 27.1182C26.4664 27.1182 26.1386 26.9264 25.8665 26.543C25.6067 26.1471 25.4768 25.6585 25.4768 25.0771C25.4768 24.7061 25.551 24.1185 25.6995 23.3145L26.8684 16.8203L28.6868 16.0596Z" fill="#727272"></path><path d="M38.261 24.1309C37.5064 25.1947 36.7704 25.974 36.053 26.4688C35.3479 26.9512 34.5624 27.1924 33.6965 27.1924C32.7441 27.1924 31.9648 26.8584 31.3586 26.1904C30.7649 25.5225 30.468 24.6566 30.468 23.5928C30.468 22.4795 30.7587 21.3477 31.3401 20.1973C31.9215 19.0469 32.6637 18.0944 33.5667 17.3398C34.482 16.5853 35.3603 16.208 36.2014 16.208C36.7704 16.208 37.2281 16.3688 37.5745 16.6904C37.9208 16.9997 38.094 17.4202 38.094 17.9521C38.094 18.4346 37.9084 18.8984 37.5374 19.3438C37.1786 19.7767 36.789 19.9932 36.3684 19.9932C36.1829 19.9932 36.0159 19.9189 35.8674 19.7705C36.6715 19.4118 37.0735 18.7438 37.0735 17.7666C37.0735 17.4202 36.9807 17.1543 36.7952 16.9688C36.622 16.7708 36.387 16.6719 36.0901 16.6719C35.6324 16.6719 35.1685 16.8574 34.6985 17.2285C34.2408 17.5996 33.8079 18.1191 33.3997 18.7871C32.9915 19.4427 32.6698 20.1478 32.4348 20.9023C32.2122 21.6445 32.1008 22.3991 32.1008 23.166C32.1008 24.0814 32.3173 24.8236 32.7502 25.3926C33.1832 25.9616 33.7522 26.2461 34.4573 26.2461C35.0634 26.2461 35.651 26.0544 36.22 25.6709C36.789 25.2874 37.3827 24.6999 38.0012 23.9082L38.261 24.1309Z" fill="#727272"></path><path d="M39.4856 27.0996L44.4211 1.7168L46.3694 0.770508L41.2297 23.3701C41.2792 23.2835 41.304 23.2279 41.304 23.2031L41.7307 22.2383C42.4605 20.5807 43.3759 19.1458 44.4768 17.9336C45.5159 16.8079 46.4745 16.2451 47.3528 16.2451C47.8228 16.2451 48.2001 16.3997 48.4846 16.709C48.7691 17.0059 48.9114 17.4079 48.9114 17.915C48.9114 18.1995 48.8433 18.6016 48.7073 19.1211L48.5217 19.9004L47.9465 22.1641L47.7795 22.8877C47.594 23.6299 47.5012 24.1989 47.5012 24.5947C47.5012 24.9906 47.5693 25.3122 47.7053 25.5596C47.8414 25.7946 48.0208 25.9121 48.2434 25.9121C48.6269 25.9121 49.2392 25.4544 50.0803 24.5391L50.3586 24.7988L50.1917 25.0029C49.4866 25.8317 48.9609 26.3945 48.6145 26.6914C48.2805 26.9759 47.9775 27.1182 47.7053 27.1182C47.3219 27.1182 46.9941 26.9141 46.7219 26.5059C46.4498 26.0977 46.3137 25.6214 46.3137 25.0771C46.3137 24.7432 46.3941 24.1556 46.5549 23.3145L47.26 19.3809C47.3713 18.7995 47.427 18.3665 47.427 18.082C47.427 17.8223 47.359 17.6243 47.2229 17.4883C47.0868 17.3522 46.9013 17.2842 46.6663 17.2842C46.2086 17.2842 45.6829 17.5563 45.0891 18.1006C44.4954 18.6325 43.8954 19.3747 43.2893 20.3271C42.6956 21.2796 42.176 22.3001 41.7307 23.3887C41.2854 24.4648 40.9514 25.5719 40.7288 26.71L39.4856 27.0996Z" fill="#727272"></path><path d="M58.9866 24.0381L59.3206 24.3164C58.5536 25.3307 57.8053 26.0667 57.0754 26.5244C56.3456 26.9697 55.5601 27.1924 54.719 27.1924C53.717 27.1924 52.913 26.8584 52.3069 26.1904C51.7008 25.5225 51.3977 24.638 51.3977 23.5371C51.3977 22.4238 51.6884 21.2982 52.2698 20.1602C52.8635 19.0098 53.5995 18.0635 54.4778 17.3213C55.3684 16.5667 56.2467 16.1895 57.1125 16.1895C57.6197 16.1895 58.0341 16.3379 58.3557 16.6348C58.6897 16.9316 58.8567 17.3151 58.8567 17.7852C58.8567 18.7376 58.3372 19.6901 57.2981 20.6426C56.259 21.5951 54.8427 22.4053 53.0491 23.0732C53.0367 23.1722 53.0305 23.2835 53.0305 23.4072C53.0305 24.2607 53.2655 24.9596 53.7356 25.5039C54.2056 26.0358 54.8118 26.3018 55.554 26.3018C56.1353 26.3018 56.6982 26.1224 57.2424 25.7637C57.7867 25.3926 58.3681 24.8174 58.9866 24.0381ZM53.0491 22.6279C54.385 22.0342 55.4117 21.3724 56.1292 20.6426C56.6116 20.1478 57.0012 19.6159 57.2981 19.0469C57.595 18.4779 57.7434 17.9645 57.7434 17.5068C57.7434 16.9255 57.4775 16.6348 56.9456 16.6348C56.1415 16.6348 55.3251 17.2718 54.4963 18.5459C53.6799 19.8076 53.1975 21.1683 53.0491 22.6279Z" fill="#727272"></path><path d="M67.5588 0.770508L62.679 22.1641L62.512 22.8877C62.3512 23.568 62.2708 24.1432 62.2708 24.6133C62.2708 24.9967 62.3388 25.3122 62.4749 25.5596C62.6233 25.7946 62.8027 25.9121 63.0129 25.9121C63.3964 25.9121 64.0087 25.4544 64.8499 24.5391L65.1467 24.7988L64.9612 25.0029C64.2561 25.8317 63.7366 26.3945 63.4026 26.6914C63.0686 26.9759 62.7594 27.1182 62.4749 27.1182C62.1038 27.1182 61.776 26.9141 61.4915 26.5059C61.2193 26.0853 61.0833 25.609 61.0833 25.0771C61.0833 24.7061 61.1637 24.1185 61.3245 23.3145L65.6106 1.7168L67.5588 0.770508Z" fill="#727272"></path><path d="M73.6819 24.0381L74.0159 24.3164C73.2489 25.3307 72.5006 26.0667 71.7708 26.5244C71.0409 26.9697 70.2555 27.1924 69.4143 27.1924C68.4124 27.1924 67.6083 26.8584 67.0022 26.1904C66.3961 25.5225 66.093 24.638 66.093 23.5371C66.093 22.4238 66.3837 21.2982 66.9651 20.1602C67.5588 19.0098 68.2948 18.0635 69.1731 17.3213C70.0637 16.5667 70.942 16.1895 71.8079 16.1895C72.315 16.1895 72.7294 16.3379 73.051 16.6348C73.385 16.9316 73.552 17.3151 73.552 17.7852C73.552 18.7376 73.0325 19.6901 71.9934 20.6426C70.9543 21.5951 69.538 22.4053 67.7444 23.0732C67.732 23.1722 67.7258 23.2835 67.7258 23.4072C67.7258 24.2607 67.9609 24.9596 68.4309 25.5039C68.901 26.0358 69.5071 26.3018 70.2493 26.3018C70.8306 26.3018 71.3935 26.1224 71.9377 25.7637C72.482 25.3926 73.0634 24.8174 73.6819 24.0381ZM67.7444 22.6279C69.0803 22.0342 70.107 21.3724 70.8245 20.6426C71.3069 20.1478 71.6965 19.6159 71.9934 19.0469C72.2903 18.4779 72.4387 17.9645 72.4387 17.5068C72.4387 16.9255 72.1728 16.6348 71.6409 16.6348C70.8368 16.6348 70.0204 17.2718 69.1917 18.5459C68.3752 19.8076 67.8928 21.1683 67.7444 22.6279Z" fill="#727272"></path><path d="M89.5461 3.81348L91.4573 2.92285L91.4016 3.40527C91.3645 3.77637 91.3336 4.08561 91.3088 4.33301C91.2841 4.56803 91.2594 4.75358 91.2346 4.88965L91.012 6.37402C91.012 6.38639 90.9872 6.5472 90.9377 6.85645C91.9644 5.82975 92.9849 4.92057 93.9993 4.12891C95.026 3.33724 95.9537 2.74967 96.7825 2.36621C97.6112 1.98275 98.372 1.79102 99.0647 1.79102C99.7945 1.79102 100.37 2.03841 100.79 2.5332C101.223 3.02799 101.44 3.70833 101.44 4.57422C101.44 5.55143 101.106 6.65234 100.438 7.87695C99.7821 9.08919 98.842 10.3385 97.6174 11.625C96.2939 13.0228 95.0878 14.0866 93.9993 14.8164C94.3951 14.7917 94.6178 14.7793 94.6672 14.7793C96.0032 14.7793 97.0979 15.1751 97.9514 15.9668C98.8049 16.7585 99.2317 17.7852 99.2317 19.0469C99.2317 20.3086 98.8668 21.5518 98.137 22.7764C97.4071 24.001 96.399 25.0524 95.1125 25.9307C93.69 26.9079 92.0325 27.3965 90.1399 27.3965C88.5566 27.3965 87.4371 27.0872 86.7815 26.4688L87.6907 25.2812C88.0865 25.7018 88.5813 26.0482 89.175 26.3203C89.7688 26.5801 90.3811 26.71 91.012 26.71C92.1252 26.71 93.1581 26.376 94.1106 25.708C95.0754 25.0277 95.8424 24.1309 96.4114 23.0176C96.9928 21.8919 97.2834 20.6921 97.2834 19.418C97.2834 18.6139 97.135 17.9274 96.8381 17.3584C96.5536 16.777 96.1454 16.3317 95.6135 16.0225C95.0816 15.7008 94.4569 15.54 93.7395 15.54C93.3931 15.54 92.9788 15.6019 92.4963 15.7256L92.6819 14.8164C93.7828 14.1855 94.859 13.3753 95.9104 12.3857C96.9618 11.3838 97.8463 10.3385 98.5637 9.25C99.5162 7.8151 99.9924 6.50391 99.9924 5.31641C99.9924 4.59896 99.8007 4.02376 99.4172 3.59082C99.0461 3.15788 98.5514 2.94141 97.9329 2.94141C96.8196 2.94141 95.3847 3.66504 93.6282 5.1123C92.4283 6.11426 91.4758 7.06055 90.7708 7.95117L90.7151 8.28516C90.5172 9.63346 90.2327 11.0993 89.8616 12.6826C89.5028 14.2536 89.0637 15.9111 88.5442 17.6553C88.037 19.387 87.5299 20.9642 87.0227 22.3867C86.429 24.0443 85.8538 25.2751 85.2971 26.0791C84.7405 26.8708 84.19 27.2666 83.6458 27.2666C82.8046 27.2666 82.384 26.5615 82.384 25.1514C82.384 24.2113 82.5572 23.0052 82.9036 21.5332C83.2623 20.0488 83.7076 18.6325 84.2395 17.2842C85.5136 14.0309 87.0846 11.3281 88.9524 9.17578C89.0637 8.44596 89.175 7.58008 89.2864 6.57812C89.4101 5.36589 89.4967 4.44434 89.5461 3.81348ZM88.7668 10.3076C87.8267 11.458 86.9237 12.862 86.0579 14.5195C85.2043 16.1771 84.5116 17.8656 83.9797 19.585C83.6581 20.624 83.3922 21.6507 83.1819 22.665C82.984 23.6794 82.885 24.4587 82.885 25.0029C82.885 25.7822 83.0767 26.1719 83.4602 26.1719C83.7323 26.1595 83.9921 25.9678 84.2395 25.5967C84.4869 25.2132 84.7961 24.5576 85.1672 23.6299C85.3652 23.1351 85.594 22.5104 85.8538 21.7559C86.1135 21.0013 86.3486 20.2777 86.5588 19.585C86.7815 18.8799 87.0165 18.0573 87.2639 17.1172C87.5237 16.1771 87.7154 15.4473 87.8391 14.9277C88.2844 13.0846 88.5937 11.5446 88.7668 10.3076Z" fill="#727272"></path><path d="M100.865 23.3516C100.865 22.2383 101.161 21.1312 101.755 20.0303C102.361 18.917 103.141 18.014 104.093 17.3213C105.045 16.6286 106.017 16.2822 107.006 16.2822C108.045 16.2822 108.88 16.6286 109.511 17.3213C110.154 18.0016 110.476 18.8861 110.476 19.9746C110.476 21.1621 110.179 22.3125 109.585 23.4258C109.004 24.5391 108.231 25.4544 107.266 26.1719C106.313 26.877 105.349 27.2295 104.371 27.2295C103.32 27.2295 102.473 26.877 101.829 26.1719C101.186 25.4544 100.865 24.5143 100.865 23.3516ZM108.806 19.2695C108.806 18.5273 108.62 17.915 108.249 17.4326C107.891 16.9502 107.427 16.709 106.858 16.709C106.338 16.709 105.837 16.876 105.355 17.21C104.885 17.5439 104.452 18.0326 104.056 18.6758C103.611 19.418 103.24 20.2839 102.943 21.2734C102.658 22.263 102.516 23.1413 102.516 23.9082C102.516 24.8236 102.695 25.5286 103.054 26.0234C103.413 26.5182 103.926 26.7656 104.594 26.7656C105.67 26.7656 106.616 26.0173 107.433 24.5205C107.853 23.7536 108.187 22.8939 108.435 21.9414C108.682 20.9889 108.806 20.0983 108.806 19.2695Z" fill="#727272"></path><path d="M112.498 16.8203L114.168 16.0596V16.3936V16.542C114.168 17.4202 114.193 18.2367 114.242 18.9912C114.292 19.7458 114.385 20.8219 114.521 22.2197C114.694 23.8525 114.824 24.8483 114.91 25.207C114.997 25.5658 115.145 25.7451 115.356 25.7451C115.628 25.7451 116.073 25.3122 116.692 24.4463C117.31 23.568 117.916 22.5104 118.51 21.2734L117.935 16.8203L119.623 16.0596L119.642 16.5234C119.741 19.1706 119.846 21.0693 119.957 22.2197C119.994 22.5166 120.031 22.832 120.069 23.166C120.106 23.4876 120.13 23.7412 120.143 23.9268C120.168 24.1123 120.198 24.3288 120.236 24.5762C120.273 24.8112 120.297 24.9658 120.31 25.04C120.409 25.4482 120.57 25.6523 120.792 25.6523C121.238 25.6523 122.004 24.7679 123.093 22.999C124.12 21.3662 124.633 19.987 124.633 18.8613C124.633 17.9583 124.336 17.3027 123.742 16.8945L125.153 15.5957C125.586 16.0905 125.802 16.7337 125.802 17.5254C125.802 18.3913 125.561 19.3747 125.078 20.4756C124.596 21.5765 123.878 22.8073 122.926 24.168C122.332 24.9967 121.788 25.6833 121.293 26.2275C120.749 26.846 120.304 27.1553 119.957 27.1553C119.685 27.1553 119.481 27.0316 119.345 26.7842C119.209 26.5244 119.104 26.0915 119.03 25.4854L118.621 22.1641C118.077 23.265 117.452 24.2917 116.747 25.2441C115.82 26.5182 115.077 27.1553 114.521 27.1553C114.261 27.1553 114.069 27.0439 113.946 26.8213C113.822 26.5863 113.711 26.1595 113.612 25.541L112.498 16.8203Z" fill="#727272"></path><path d="M134.393 24.0381L134.727 24.3164C133.96 25.3307 133.212 26.0667 132.482 26.5244C131.752 26.9697 130.966 27.1924 130.125 27.1924C129.123 27.1924 128.319 26.8584 127.713 26.1904C127.107 25.5225 126.804 24.638 126.804 23.5371C126.804 22.4238 127.095 21.2982 127.676 20.1602C128.27 19.0098 129.006 18.0635 129.884 17.3213C130.775 16.5667 131.653 16.1895 132.519 16.1895C133.026 16.1895 133.44 16.3379 133.762 16.6348C134.096 16.9316 134.263 17.3151 134.263 17.7852C134.263 18.7376 133.743 19.6901 132.704 20.6426C131.665 21.5951 130.249 22.4053 128.455 23.0732C128.443 23.1722 128.437 23.2835 128.437 23.4072C128.437 24.2607 128.672 24.9596 129.142 25.5039C129.612 26.0358 130.218 26.3018 130.96 26.3018C131.542 26.3018 132.104 26.1224 132.649 25.7637C133.193 25.3926 133.774 24.8174 134.393 24.0381ZM128.455 22.6279C129.791 22.0342 130.818 21.3724 131.535 20.6426C132.018 20.1478 132.407 19.6159 132.704 19.0469C133.001 18.4779 133.15 17.9645 133.15 17.5068C133.15 16.9255 132.884 16.6348 132.352 16.6348C131.548 16.6348 130.731 17.2718 129.903 18.5459C129.086 19.8076 128.604 21.1683 128.455 22.6279Z" fill="#727272"></path><path d="M136.193 27.0996L138.159 16.8203L139.922 16.0596L138.326 22.8691C139.353 20.7044 140.374 19.0592 141.388 17.9336C142.402 16.8079 143.373 16.2451 144.301 16.2451C144.759 16.2451 145.13 16.3997 145.414 16.709C145.699 17.0059 145.841 17.4079 145.841 17.915C145.841 18.1995 145.773 18.6016 145.637 19.1211L145.451 19.9004L144.895 22.1641L144.709 22.8877C144.524 23.6299 144.431 24.1989 144.431 24.5947C144.431 24.9906 144.499 25.3122 144.635 25.5596C144.771 25.7946 144.95 25.9121 145.173 25.9121C145.557 25.9121 146.169 25.4544 147.01 24.5391L147.307 24.7988L147.121 25.0029C146.416 25.8317 145.897 26.3945 145.563 26.6914C145.229 26.9759 144.92 27.1182 144.635 27.1182C144.252 27.1182 143.924 26.9264 143.652 26.543C143.392 26.1471 143.262 25.6585 143.262 25.0771C143.262 24.6813 143.336 24.0938 143.485 23.3145L144.208 19.3809C144.307 18.7624 144.357 18.3294 144.357 18.082C144.357 17.8223 144.289 17.6243 144.153 17.4883C144.017 17.3522 143.831 17.2842 143.596 17.2842C142.742 17.2842 141.691 18.1995 140.442 20.0303C139.836 20.9085 139.335 21.7806 138.939 22.6465C138.543 23.5 138.098 24.6875 137.603 26.209L137.436 26.71L136.193 27.0996Z" fill="#727272"></path></svg>