<svg xmlns="http://www.w3.org/2000/svg" width="71" height="24" viewBox="0 0 71 24" fill="none"><path d="M18.8884 1.02961V23.4296H17.5444L2.28044 3.97361V23.4296H0.648438V1.02961H2.02444L17.2564 20.4856V1.02961H18.8884Z" fill="#727272"></path><path d="M42.4549 23.7496L39.2229 20.3576C38.3056 21.4243 37.2176 22.2349 35.9589 22.7896C34.7003 23.3229 33.3029 23.5896 31.7669 23.5896C30.3589 23.5896 29.1003 23.3549 27.9909 22.8856C26.8816 22.4163 26.0176 21.7549 25.3989 20.9016C24.7803 20.0483 24.4709 19.0776 24.4709 17.9896C24.4709 16.6883 24.9083 15.5043 25.7829 14.4376C26.6576 13.3496 28.1509 12.1869 30.2629 10.9496L30.2309 10.8856C29.1216 9.73361 28.3643 8.77361 27.9589 8.00561C27.5536 7.21628 27.3509 6.37361 27.3509 5.47761C27.3509 4.09094 27.8309 2.98161 28.7909 2.14961C29.7509 1.31761 31.0416 0.901611 32.6629 0.901611C34.1776 0.901611 35.3723 1.28561 36.2469 2.05361C37.1429 2.80028 37.5909 3.83495 37.5909 5.15761C37.5909 6.26694 37.2069 7.26961 36.4389 8.16561C35.6923 9.04028 34.3696 10.0323 32.4709 11.1416L39.0949 18.1496C39.8203 16.8696 40.3536 15.3549 40.6949 13.6056L42.0069 14.0216C41.5803 16.0909 40.9403 17.8083 40.0869 19.1736L43.4149 22.6936L42.4549 23.7496ZM28.8549 5.47761C28.8549 6.18161 29.0363 6.86428 29.3989 7.52561C29.7616 8.16561 30.4763 9.05095 31.5429 10.1816C33.3136 9.15761 34.5296 8.29361 35.1909 7.58961C35.8523 6.86428 36.1829 6.06428 36.1829 5.18961C36.1829 4.25095 35.8736 3.51495 35.2549 2.98161C34.6363 2.42695 33.7723 2.14961 32.6629 2.14961C31.4683 2.14961 30.5296 2.45895 29.8469 3.07761C29.1856 3.67495 28.8549 4.47495 28.8549 5.47761ZM31.8309 22.2456C34.5616 22.2456 36.7056 21.2749 38.2629 19.3336L31.1909 11.8776C29.2283 13.0296 27.8736 14.0429 27.1269 14.9176C26.4016 15.7923 26.0389 16.7736 26.0389 17.8616C26.0389 19.1629 26.5723 20.2189 27.6389 21.0296C28.7269 21.8403 30.1243 22.2456 31.8309 22.2456Z" fill="#727272"></path><path d="M68.8637 23.4296L68.8317 4.26161L59.4557 20.4536H58.6557L49.2797 4.32561V23.4296H47.6797V1.02961H49.0557L59.0717 18.3416L69.0877 1.02961H70.4317L70.4637 23.4296H68.8637Z" fill="#727272"></path></svg>